<svg width="16" height="14" viewBox="0 0 16 14" fill="none" xmlns="http://www.w3.org/2000/svg">
<g clip-path="url(#clip0_173_17)">
<path d="M1.66685 8.48477C1.29892 8.05731 1.04463 7.54722 0.926666 6.99999C0.926666 6.22222 4.1 2.33333 8.06667 2.33333M14.096 5.28888C14.6121 5.75451 14.995 6.34441 15.2067 6.99999C15.2067 7.77777 12.8267 11.6667 8.06667 11.6667C7.81756 11.6667 7.5748 11.6558 7.33839 11.6355M1.72 13.2222L14.4133 0.777771M10.4467 6.99999C10.4467 7.61883 10.1959 8.21232 9.74958 8.64991C9.30324 9.08749 8.69788 9.33333 8.06667 9.33333C7.43545 9.33333 6.83009 9.08749 6.38375 8.64991C5.93742 8.21232 5.68667 7.61883 5.68667 6.99999C5.68667 6.38115 5.93742 5.78766 6.38375 5.35008C6.83009 4.91249 7.43545 4.66666 8.06667 4.66666C8.69788 4.66666 9.30324 4.91249 9.74958 5.35008C10.1959 5.78766 10.4467 6.38115 10.4467 6.99999Z" stroke="#854D0E" stroke-linecap="round" stroke-linejoin="round"/>
</g>
<defs>
<clipPath id="clip0_173_17">
<rect width="15.8667" height="14" fill="white" transform="translate(0.133331)"/>
</clipPath>
</defs>
</svg>
